<mxfile host="app.diagrams.net" modified="2021-01-27T20:31:04.930Z" agent="5.0 (Windows NT 10.0; Win64; x64) AppleWebKit/537.36 (KHTML, like Gecko) Chrome/87.0.4280.141 Safari/537.36" etag="LRgh-RlORdrIFQAOuZD5" version="14.2.7" type="github">
  <diagram id="NXrjEMYfABUCyb1KhY5M" name="Page-1">
    <mxGraphModel dx="1929" dy="1793" grid="1" gridSize="10" guides="1" tooltips="1" connect="1" arrows="1" fold="1" page="1" pageScale="1" pageWidth="827" pageHeight="1169" math="0" shadow="0">
      <root>
        <mxCell id="0" />
        <mxCell id="1" parent="0" />
        <mxCell id="UO2rm4Z5bCYeWjgrv236-9" style="edgeStyle=orthogonalEdgeStyle;rounded=0;orthogonalLoop=1;jettySize=auto;html=1;exitX=1;exitY=0.5;exitDx=0;exitDy=0;" parent="1" source="UO2rm4Z5bCYeWjgrv236-7" edge="1">
          <mxGeometry relative="1" as="geometry">
            <mxPoint x="240" y="280" as="targetPoint" />
          </mxGeometry>
        </mxCell>
        <mxCell id="UO2rm4Z5bCYeWjgrv236-7" value="" style="shape=process;whiteSpace=wrap;html=1;backgroundOutline=1;" parent="1" vertex="1">
          <mxGeometry x="63" y="250" width="67" height="60" as="geometry" />
        </mxCell>
        <mxCell id="UO2rm4Z5bCYeWjgrv236-17" value="NLB" style="text;html=1;strokeColor=none;fillColor=none;align=center;verticalAlign=middle;whiteSpace=wrap;rounded=0;" parent="1" vertex="1">
          <mxGeometry x="71.5" y="270" width="50" height="20" as="geometry" />
        </mxCell>
        <mxCell id="UO2rm4Z5bCYeWjgrv236-25" style="edgeStyle=orthogonalEdgeStyle;rounded=0;orthogonalLoop=1;jettySize=auto;html=1;exitX=1;exitY=0.5;exitDx=0;exitDy=0;exitPerimeter=0;" parent="1" source="UO2rm4Z5bCYeWjgrv236-18" edge="1">
          <mxGeometry relative="1" as="geometry">
            <mxPoint y="280" as="targetPoint" />
          </mxGeometry>
        </mxCell>
        <mxCell id="UO2rm4Z5bCYeWjgrv236-18" value="" style="fontColor=#0066CC;verticalAlign=top;verticalLabelPosition=bottom;labelPosition=center;align=center;html=1;outlineConnect=0;fillColor=#CCCCCC;strokeColor=#6881B3;gradientColor=none;gradientDirection=north;strokeWidth=2;shape=mxgraph.networks.virtual_pc;" parent="1" vertex="1">
          <mxGeometry x="-110" y="185" width="50" height="45" as="geometry" />
        </mxCell>
        <mxCell id="UO2rm4Z5bCYeWjgrv236-19" value="" style="verticalLabelPosition=bottom;aspect=fixed;html=1;verticalAlign=top;strokeColor=none;align=center;outlineConnect=0;shape=mxgraph.citrix.tablet_2;" parent="1" vertex="1">
          <mxGeometry x="-110" y="255" width="38.14" height="40" as="geometry" />
        </mxCell>
        <mxCell id="UO2rm4Z5bCYeWjgrv236-20" value="" style="points=[];aspect=fixed;html=1;align=center;shadow=0;dashed=0;image;image=img/lib/allied_telesis/computer_and_terminals/Smartphone.svg;" parent="1" vertex="1">
          <mxGeometry x="-97" y="320" width="22.92" height="50" as="geometry" />
        </mxCell>
        <mxCell id="UO2rm4Z5bCYeWjgrv236-24" value="" style="endArrow=classic;html=1;" parent="1" edge="1">
          <mxGeometry width="50" height="50" relative="1" as="geometry">
            <mxPoint x="3" y="280" as="sourcePoint" />
            <mxPoint x="63" y="280" as="targetPoint" />
          </mxGeometry>
        </mxCell>
        <mxCell id="UO2rm4Z5bCYeWjgrv236-27" value="" style="endArrow=classic;html=1;exitX=0.916;exitY=0.46;exitDx=0;exitDy=0;exitPerimeter=0;" parent="1" source="UO2rm4Z5bCYeWjgrv236-20" edge="1">
          <mxGeometry width="50" height="50" relative="1" as="geometry">
            <mxPoint x="-50" y="380" as="sourcePoint" />
            <mxPoint y="280" as="targetPoint" />
            <Array as="points">
              <mxPoint y="343" />
            </Array>
          </mxGeometry>
        </mxCell>
        <mxCell id="UO2rm4Z5bCYeWjgrv236-28" value="" style="endArrow=classic;html=1;" parent="1" edge="1">
          <mxGeometry width="50" height="50" relative="1" as="geometry">
            <mxPoint x="-71.8599999999999" y="279.20972176399425" as="sourcePoint" />
            <mxPoint y="280" as="targetPoint" />
          </mxGeometry>
        </mxCell>
        <mxCell id="UO2rm4Z5bCYeWjgrv236-42" value="" style="group" parent="1" vertex="1" connectable="0">
          <mxGeometry x="257" y="230" width="130" height="130" as="geometry" />
        </mxCell>
        <mxCell id="UO2rm4Z5bCYeWjgrv236-33" value="" style="whiteSpace=wrap;html=1;aspect=fixed;" parent="UO2rm4Z5bCYeWjgrv236-42" vertex="1">
          <mxGeometry x="-5" y="-3" width="130" height="130" as="geometry" />
        </mxCell>
        <mxCell id="UO2rm4Z5bCYeWjgrv236-34" value="" style="aspect=fixed;pointerEvents=1;shadow=0;dashed=0;html=1;strokeColor=none;labelPosition=center;verticalLabelPosition=bottom;verticalAlign=top;align=center;fillColor=#00188D;shape=mxgraph.mscae.enterprise.application_server" parent="UO2rm4Z5bCYeWjgrv236-42" vertex="1">
          <mxGeometry x="23" y="27" width="43" height="50" as="geometry" />
        </mxCell>
        <mxCell id="UO2rm4Z5bCYeWjgrv236-35" value="" style="aspect=fixed;pointerEvents=1;shadow=0;dashed=0;html=1;strokeColor=none;labelPosition=center;verticalLabelPosition=bottom;verticalAlign=top;align=center;fillColor=#00188D;shape=mxgraph.mscae.enterprise.application_server" parent="UO2rm4Z5bCYeWjgrv236-42" vertex="1">
          <mxGeometry x="76" y="28" width="43" height="50" as="geometry" />
        </mxCell>
        <mxCell id="UO2rm4Z5bCYeWjgrv236-36" value="n*x AppServer" style="text;html=1;strokeColor=none;fillColor=none;align=center;verticalAlign=middle;whiteSpace=wrap;rounded=0;" parent="UO2rm4Z5bCYeWjgrv236-42" vertex="1">
          <mxGeometry x="26" y="102" width="89" height="20" as="geometry" />
        </mxCell>
        <mxCell id="UO2rm4Z5bCYeWjgrv236-43" value="" style="group" parent="1" vertex="1" connectable="0">
          <mxGeometry x="600" y="40" width="43" height="83" as="geometry" />
        </mxCell>
        <mxCell id="UO2rm4Z5bCYeWjgrv236-3" value="" style="aspect=fixed;pointerEvents=1;shadow=0;dashed=0;html=1;strokeColor=none;labelPosition=center;verticalLabelPosition=bottom;verticalAlign=top;align=center;fillColor=#00188D;shape=mxgraph.mscae.enterprise.application_server2" parent="UO2rm4Z5bCYeWjgrv236-43" vertex="1">
          <mxGeometry width="43" height="50" as="geometry" />
        </mxCell>
        <mxCell id="UO2rm4Z5bCYeWjgrv236-14" value="" style="shape=image;html=1;verticalAlign=top;verticalLabelPosition=bottom;labelBackgroundColor=#ffffff;imageAspect=0;aspect=fixed;image=https://cdn4.iconfinder.com/data/icons/zoo-line-welcome-to-zootopia/512/rabbit-128.png" parent="UO2rm4Z5bCYeWjgrv236-43" vertex="1">
          <mxGeometry y="50" width="33" height="33" as="geometry" />
        </mxCell>
        <mxCell id="UO2rm4Z5bCYeWjgrv236-58" value="" style="group" parent="1" vertex="1" connectable="0">
          <mxGeometry x="470" y="39" width="49.25" height="130" as="geometry" />
        </mxCell>
        <mxCell id="UO2rm4Z5bCYeWjgrv236-37" value="" style="aspect=fixed;pointerEvents=1;shadow=0;dashed=0;html=1;strokeColor=none;labelPosition=center;verticalLabelPosition=bottom;verticalAlign=top;align=center;fillColor=#00188D;shape=mxgraph.mscae.enterprise.application_server2" parent="UO2rm4Z5bCYeWjgrv236-58" vertex="1">
          <mxGeometry x="6.25" width="43" height="50" as="geometry" />
        </mxCell>
        <mxCell id="UO2rm4Z5bCYeWjgrv236-41" value="" style="outlineConnect=0;dashed=0;verticalLabelPosition=bottom;verticalAlign=top;align=center;html=1;shape=mxgraph.aws3.add_on;fillColor=#759C3E;gradientColor=none;" parent="UO2rm4Z5bCYeWjgrv236-58" vertex="1">
          <mxGeometry y="52.5" width="36.5" height="17" as="geometry" />
        </mxCell>
        <mxCell id="UO2rm4Z5bCYeWjgrv236-80" value="Identity" style="text;html=1;strokeColor=none;fillColor=none;align=center;verticalAlign=middle;whiteSpace=wrap;rounded=0;" parent="UO2rm4Z5bCYeWjgrv236-58" vertex="1">
          <mxGeometry x="9.25" y="81" width="40" height="20" as="geometry" />
        </mxCell>
        <mxCell id="UO2rm4Z5bCYeWjgrv236-64" value="" style="endArrow=classic;html=1;exitX=1;exitY=0.75;exitDx=0;exitDy=0;entryX=0;entryY=0.25;entryDx=0;entryDy=0;" parent="1" source="UO2rm4Z5bCYeWjgrv236-33" edge="1" target="UO2rm4Z5bCYeWjgrv236-49">
          <mxGeometry width="50" height="50" relative="1" as="geometry">
            <mxPoint x="390" y="280" as="sourcePoint" />
            <mxPoint x="490" y="480" as="targetPoint" />
            <Array as="points">
              <mxPoint x="440" y="325" />
              <mxPoint x="440" y="423" />
            </Array>
          </mxGeometry>
        </mxCell>
        <mxCell id="UO2rm4Z5bCYeWjgrv236-68" style="edgeStyle=orthogonalEdgeStyle;rounded=0;orthogonalLoop=1;jettySize=auto;html=1;entryX=-0.1;entryY=0.475;entryDx=0;entryDy=0;entryPerimeter=0;" parent="1" source="UO2rm4Z5bCYeWjgrv236-37" edge="1" target="UO2rm4Z5bCYeWjgrv236-61">
          <mxGeometry relative="1" as="geometry">
            <mxPoint x="750" y="240" as="targetPoint" />
            <Array as="points">
              <mxPoint x="560" y="64" />
              <mxPoint x="560" y="240" />
              <mxPoint x="750" y="240" />
              <mxPoint x="750" y="243" />
            </Array>
          </mxGeometry>
        </mxCell>
        <mxCell id="UO2rm4Z5bCYeWjgrv236-69" style="edgeStyle=orthogonalEdgeStyle;rounded=0;orthogonalLoop=1;jettySize=auto;html=1;entryX=-0.15;entryY=0.304;entryDx=0;entryDy=0;entryPerimeter=0;" parent="1" source="UO2rm4Z5bCYeWjgrv236-3" edge="1" target="UO2rm4Z5bCYeWjgrv236-61">
          <mxGeometry relative="1" as="geometry">
            <mxPoint x="750" y="200" as="targetPoint" />
            <Array as="points">
              <mxPoint x="660" y="65" />
              <mxPoint x="660" y="200" />
              <mxPoint x="797" y="200" />
            </Array>
          </mxGeometry>
        </mxCell>
        <mxCell id="UO2rm4Z5bCYeWjgrv236-74" style="edgeStyle=orthogonalEdgeStyle;rounded=0;orthogonalLoop=1;jettySize=auto;html=1;exitX=0.25;exitY=0;exitDx=0;exitDy=0;" parent="1" source="UO2rm4Z5bCYeWjgrv236-33" edge="1">
          <mxGeometry relative="1" as="geometry">
            <mxPoint x="610" y="40" as="targetPoint" />
            <Array as="points">
              <mxPoint x="320" y="227" />
              <mxPoint x="320" y="20" />
              <mxPoint x="610" y="20" />
            </Array>
          </mxGeometry>
        </mxCell>
        <mxCell id="UO2rm4Z5bCYeWjgrv236-75" style="edgeStyle=orthogonalEdgeStyle;rounded=0;orthogonalLoop=1;jettySize=auto;html=1;exitX=0.5;exitY=0;exitDx=0;exitDy=0;" parent="1" source="UO2rm4Z5bCYeWjgrv236-33" edge="1">
          <mxGeometry relative="1" as="geometry">
            <mxPoint x="470" y="60" as="targetPoint" />
            <Array as="points">
              <mxPoint x="360" y="227" />
              <mxPoint x="360" y="60" />
            </Array>
          </mxGeometry>
        </mxCell>
        <mxCell id="UO2rm4Z5bCYeWjgrv236-76" style="edgeStyle=orthogonalEdgeStyle;rounded=0;orthogonalLoop=1;jettySize=auto;html=1;exitX=0.25;exitY=0;exitDx=0;exitDy=0;entryX=0.256;entryY=-0.18;entryDx=0;entryDy=0;entryPerimeter=0;" parent="1" source="UO2rm4Z5bCYeWjgrv236-33" target="UO2rm4Z5bCYeWjgrv236-4" edge="1">
          <mxGeometry relative="1" as="geometry">
            <mxPoint x="710" y="-30" as="targetPoint" />
            <Array as="points">
              <mxPoint x="285" />
              <mxPoint x="728" />
            </Array>
          </mxGeometry>
        </mxCell>
        <mxCell id="UO2rm4Z5bCYeWjgrv236-79" style="edgeStyle=orthogonalEdgeStyle;rounded=0;orthogonalLoop=1;jettySize=auto;html=1;entryX=-0.15;entryY=0.133;entryDx=0;entryDy=0;entryPerimeter=0;" parent="1" source="UO2rm4Z5bCYeWjgrv236-4" edge="1" target="UO2rm4Z5bCYeWjgrv236-61">
          <mxGeometry relative="1" as="geometry">
            <mxPoint x="750" y="160" as="targetPoint" />
            <Array as="points">
              <mxPoint x="730" y="161" />
            </Array>
          </mxGeometry>
        </mxCell>
        <mxCell id="UO2rm4Z5bCYeWjgrv236-44" value="" style="group" parent="1" vertex="1" connectable="0">
          <mxGeometry x="716" y="39" width="44" height="79" as="geometry" />
        </mxCell>
        <mxCell id="UO2rm4Z5bCYeWjgrv236-4" value="" style="aspect=fixed;pointerEvents=1;shadow=0;dashed=0;html=1;strokeColor=none;labelPosition=center;verticalLabelPosition=bottom;verticalAlign=top;align=center;fillColor=#00188D;shape=mxgraph.mscae.enterprise.application_server2" parent="UO2rm4Z5bCYeWjgrv236-44" vertex="1">
          <mxGeometry x="1" width="43" height="50" as="geometry" />
        </mxCell>
        <mxCell id="UO2rm4Z5bCYeWjgrv236-16" value="" style="shape=image;verticalLabelPosition=bottom;labelBackgroundColor=#ffffff;verticalAlign=top;aspect=fixed;imageAspect=0;image=data:image/png,iVBORw0KGgoAAAANSUhEUgAAAGcAAABnCAYAAAAdQVz5AAAFrUlEQVR4Ae2dz2scZRzGQ6WkiE2LB/HQS6Mni/gfWEoVPNjGmLjxoHjo5hS915KYtbu6IZAcuh5EatOCYRNFWtGDkoOQYknx0ECEREwFEyRCYpM07qab2c1XngnjO9m+mRnmR/qaPAMv851h953Zz/M+3/fd2Zl9GzasqrCYyaCBwpgpDHShOAZnDopDccxNHSandTrn/+4cq1qTldK6jI5PSapvRJrPDcih1ow0vNrNEoABWIEZ2IEhWIKpn2t9nVOxLJmYmZf2fFGa0wNytCMnja29cuBMD4UJIAwaMFiBGdiBYVu+KLem5wRsvQTyFAfqQpiW7LAcsUXJyHNdBWnJDUtn4Ya8++l3LAEYpC9dl7PZL2x2cFFTKmszBVsvB3mKA/vBMRDm8BtZOfn+5/LDnVmZW1yRcsUSLsEIlB5syB+LKzI2OSunLlyxxQFTpDkw3sk9nuIgP8KGja0ZW5iF5TWp1mrBzoiveohAtbYpS/dLcrp7SA69npHm9KB8eXMqnDhQFnkSqQyOgTCbmw8dkzsCEgA6CAQHnegq2GxTfaPhxMEIAx0Z+hikMi7xEECKQx8EtmAcKq2h88JIA50/+5h4hEEt6IMwSABbMA4ljvM9BqMyLvESAFOHL8WJl23k2ihOZITJVUBxkmMbuWaKExlhchVQnOTYRq6Z4kRGmFwFFCc5tpFrpjiRESZXAcVJjm3kmilOZITJVWC8OH8tr8nFkR/l5Z6rngUXCfG6cmUjNlq//blkX9/yOzauzH/10y+xHdepyHhx7i7ck1T/6H/XmJxrTfVr/NDX3leU1fID57NFXt/+dV6e7yr4Hvvpt/uk/+ubkY9XXwHFqSfi2qY4Lhi6kM7ZunvJyKvSFIfi6EwrTGtaLGonnUPnqNbgiugcFwxdSOfQObp2wT5HS8W1k86hc1zNQYXscxQLbUTn0DnahkHnaLGonXQOnaNagyuic1wwdCGdQ+fo2gW/52ipuHbSOXvAOY+3fSivZK7J5O8Lgp+X4yjfTEzLM52D/CXUZZZtYVDnHHytV556Ky8nz1+Wl7qHYikvvPeJPPnmRxRnmyKujaDi1N9TsJvbvIcg4PP8uymKcyyKQ3G0jx56PurutB7cxpPEwrS2B0ZrTiN5FGumNaY1prUwzqNzfJzz2NkP5In2i3L83IA82zkYSwF0fLn1E4zi+IiD/4l58fxl+fb2jIzdmY2lfPb9z3LsnX6Ks9NIL+hojTeya/5O0bH8ox5KUxyKo01x7HN8+hw6h86hc9yDAw4I9sDlG6Y1pjWmNaa1LQJ8YNfdEupi3rdWB6R+kwMCDgjq24S9TedosaiddA6do1qDK6JzXDB0IZ1D5+jaBe+V1lJx7aRz6BxXc1Ah+xzFQhvROXSOtmHQOVosaiedY7Bz+DeSBoujPLT/IuOvSu8/SdQnpjiKhXERxTFOEnVCFEexMC6iOMZJok6I4igWxkUUxzhJ1AlRHMXCuIjiGCeJOiGKo1gYF0UWh9MfJ6NpLNMfb584fDWZM92HtcYycTgm9jnakbOnhx+bvGtPF49p47mEIwB21dqmjE3O2kzBFoxDzQIyMj4lzekBe+bxUxeuyNL9kl15uFPjuyDM32tlOd09JHgIGWxHx6fCibP8z7q0fVyUplTWLqgUDppbXJVyxSLtgATQxyCVwTFguMUzJ235oqyU1sOJY1Vrcmt6Tlqyw3KkI2erfaKrIC25Yeks3BCMOFj8GaQvXRfMOwd2cExTKmdvgy0Yh0preFPFsmRiZl7a80XbhsiTja29cuBMj/Z5FucJbK63fuUEB7ACM7BDKoNjIAzY7iQM9nv+a5TzRqgL+yE/ogPDKA7DbAqgBPBiAVZgBnZgCJZejnG4BxLHeTHXVc+WHjcfiqN53DJuyGHrozgUZ3fTQdiWatr76Bw6h84J40o6x2Dn/Av/eVipUAFa9QAAAABJRU5ErkJggg==;" parent="UO2rm4Z5bCYeWjgrv236-44" vertex="1">
          <mxGeometry y="51" width="28" height="28" as="geometry" />
        </mxCell>
        <mxCell id="UO2rm4Z5bCYeWjgrv236-81" value="MMQ" style="text;html=1;strokeColor=none;fillColor=none;align=center;verticalAlign=middle;whiteSpace=wrap;rounded=0;" parent="1" vertex="1">
          <mxGeometry x="600" y="129" width="40" height="20" as="geometry" />
        </mxCell>
        <mxCell id="UO2rm4Z5bCYeWjgrv236-82" value="Sch. JOBS" style="text;html=1;strokeColor=none;fillColor=none;align=center;verticalAlign=middle;whiteSpace=wrap;rounded=0;" parent="1" vertex="1">
          <mxGeometry x="690" y="118" width="40" height="20" as="geometry" />
        </mxCell>
        <mxCell id="gLElLgPTifh7WZ2sO9y9-5" style="edgeStyle=orthogonalEdgeStyle;rounded=0;orthogonalLoop=1;jettySize=auto;html=1;exitX=1;exitY=0.25;exitDx=0;exitDy=0;entryX=-0.25;entryY=0.629;entryDx=0;entryDy=0;entryPerimeter=0;" edge="1" parent="1" source="UO2rm4Z5bCYeWjgrv236-33" target="UO2rm4Z5bCYeWjgrv236-61">
          <mxGeometry relative="1" as="geometry">
            <mxPoint x="753" y="280" as="targetPoint" />
            <Array as="points">
              <mxPoint x="382" y="295" />
            </Array>
          </mxGeometry>
        </mxCell>
        <mxCell id="gLElLgPTifh7WZ2sO9y9-10" value="" style="group" vertex="1" connectable="0" parent="1">
          <mxGeometry x="480" y="380" width="172.41153685092127" height="172.41153685092127" as="geometry" />
        </mxCell>
        <mxCell id="UO2rm4Z5bCYeWjgrv236-49" value="" style="whiteSpace=wrap;html=1;aspect=fixed;" parent="gLElLgPTifh7WZ2sO9y9-10" vertex="1">
          <mxGeometry width="172.4115368509213" height="172.4115368509213" as="geometry" />
        </mxCell>
        <mxCell id="UO2rm4Z5bCYeWjgrv236-50" value="" style="group" parent="gLElLgPTifh7WZ2sO9y9-10" vertex="1" connectable="0">
          <mxGeometry x="35.08676193467335" y="23.86934673366835" width="48.668734296482405" height="91.70854271356785" as="geometry" />
        </mxCell>
        <mxCell id="UO2rm4Z5bCYeWjgrv236-51" value="" style="aspect=fixed;pointerEvents=1;shadow=0;dashed=0;html=1;strokeColor=none;labelPosition=center;verticalLabelPosition=bottom;verticalAlign=top;align=center;fillColor=#00188D;shape=mxgraph.mscae.enterprise.application_server2" parent="UO2rm4Z5bCYeWjgrv236-50" vertex="1">
          <mxGeometry width="43.60997696817421" height="50.70927554438861" as="geometry" />
        </mxCell>
        <mxCell id="UO2rm4Z5bCYeWjgrv236-52" value="" style="html=1;verticalLabelPosition=bottom;align=center;labelBackgroundColor=#ffffff;verticalAlign=top;strokeWidth=2;strokeColor=#0080F0;shadow=0;dashed=0;shape=mxgraph.ios7.icons.video_conversation;" parent="UO2rm4Z5bCYeWjgrv236-50" vertex="1">
          <mxGeometry x="4.527324120603015" y="72.86432160804021" width="35.08676193467336" height="18.84422110552764" as="geometry" />
        </mxCell>
        <mxCell id="UO2rm4Z5bCYeWjgrv236-13" value="" style="points=[[0,0,0],[0.25,0,0],[0.5,0,0],[0.75,0,0],[1,0,0],[0,1,0],[0.25,1,0],[0.5,1,0],[0.75,1,0],[1,1,0],[0,0.25,0],[0,0.5,0],[0,0.75,0],[1,0.25,0],[1,0.5,0],[1,0.75,0]];outlineConnect=0;fontColor=#232F3E;gradientColor=#4D72F3;gradientDirection=north;fillColor=#3334B9;strokeColor=#ffffff;dashed=0;verticalLabelPosition=bottom;verticalAlign=top;align=center;html=1;fontSize=12;fontStyle=0;aspect=fixed;shape=mxgraph.aws4.resourceIcon;resIcon=mxgraph.aws4.documentdb_with_mongodb_compatibility;" parent="gLElLgPTifh7WZ2sO9y9-10" vertex="1">
          <mxGeometry x="98.81817943886097" y="23.86934673366835" width="60.85113065326634" height="60.85113065326634" as="geometry" />
        </mxCell>
        <mxCell id="UO2rm4Z5bCYeWjgrv236-55" value="Video Content Server&amp;nbsp; &amp;nbsp;&lt;br&gt;Video Content Meta Data Database&amp;nbsp;" style="text;html=1;strokeColor=none;fillColor=none;align=center;verticalAlign=middle;whiteSpace=wrap;rounded=0;" parent="gLElLgPTifh7WZ2sO9y9-10" vertex="1">
          <mxGeometry x="9.189999999999998" y="113.63" width="158.46" height="54.37" as="geometry" />
        </mxCell>
        <mxCell id="gLElLgPTifh7WZ2sO9y9-11" value="" style="group" vertex="1" connectable="0" parent="1">
          <mxGeometry x="1080" y="123" width="120" height="301.5" as="geometry" />
        </mxCell>
        <mxCell id="UO2rm4Z5bCYeWjgrv236-12" value="" style="image;html=1;image=img/lib/clip_art/computers/Database_128x128.png" parent="gLElLgPTifh7WZ2sO9y9-11" vertex="1">
          <mxGeometry x="30" y="153.5" width="80" height="80" as="geometry" />
        </mxCell>
        <mxCell id="UO2rm4Z5bCYeWjgrv236-54" value="" style="points=[[0,0,0],[0.25,0,0],[0.5,0,0],[0.75,0,0],[1,0,0],[0,1,0],[0.25,1,0],[0.5,1,0],[0.75,1,0],[1,1,0],[0,0.25,0],[0,0.5,0],[0,0.75,0],[1,0.25,0],[1,0.5,0],[1,0.75,0]];outlineConnect=0;fontColor=#232F3E;gradientColor=#4D72F3;gradientDirection=north;fillColor=#3334B9;strokeColor=#ffffff;dashed=0;verticalLabelPosition=bottom;verticalAlign=top;align=center;html=1;fontSize=12;fontStyle=0;aspect=fixed;shape=mxgraph.aws4.resourceIcon;resIcon=mxgraph.aws4.documentdb_with_mongodb_compatibility;" parent="gLElLgPTifh7WZ2sO9y9-11" vertex="1">
          <mxGeometry x="30" width="60" height="60" as="geometry" />
        </mxCell>
        <mxCell id="UO2rm4Z5bCYeWjgrv236-59" value="Document Based Database MongoDb" style="text;html=1;strokeColor=none;fillColor=none;align=center;verticalAlign=middle;whiteSpace=wrap;rounded=0;" parent="gLElLgPTifh7WZ2sO9y9-11" vertex="1">
          <mxGeometry y="59.5" width="120" height="42" as="geometry" />
        </mxCell>
        <mxCell id="UO2rm4Z5bCYeWjgrv236-61" value="" style="strokeWidth=2;html=1;shape=mxgraph.flowchart.annotation_1;align=left;pointerEvents=1;" parent="gLElLgPTifh7WZ2sO9y9-11" vertex="1">
          <mxGeometry y="20.5" width="20" height="240" as="geometry" />
        </mxCell>
        <mxCell id="UO2rm4Z5bCYeWjgrv236-62" value="RDMS DATABASE&amp;nbsp;&lt;br&gt;PostgreSQL&amp;nbsp;&lt;br&gt;Oracle&lt;br&gt;MSQL" style="text;html=1;strokeColor=none;fillColor=none;align=center;verticalAlign=middle;whiteSpace=wrap;rounded=0;" parent="gLElLgPTifh7WZ2sO9y9-11" vertex="1">
          <mxGeometry x="30" y="243.5" width="90" height="58" as="geometry" />
        </mxCell>
        <mxCell id="UO2rm4Z5bCYeWjgrv236-77" value="" style="endArrow=classic;startArrow=classic;html=1;" parent="gLElLgPTifh7WZ2sO9y9-11" edge="1">
          <mxGeometry width="50" height="50" relative="1" as="geometry">
            <mxPoint x="60" y="141.5" as="sourcePoint" />
            <mxPoint x="60" y="101.5" as="targetPoint" />
          </mxGeometry>
        </mxCell>
        <mxCell id="gLElLgPTifh7WZ2sO9y9-13" style="edgeStyle=orthogonalEdgeStyle;rounded=0;orthogonalLoop=1;jettySize=auto;html=1;" edge="1" parent="1" source="UO2rm4Z5bCYeWjgrv236-4" target="gLElLgPTifh7WZ2sO9y9-12">
          <mxGeometry relative="1" as="geometry">
            <Array as="points">
              <mxPoint x="890" y="64" />
              <mxPoint x="890" y="450" />
            </Array>
          </mxGeometry>
        </mxCell>
        <mxCell id="gLElLgPTifh7WZ2sO9y9-14" style="edgeStyle=orthogonalEdgeStyle;rounded=0;orthogonalLoop=1;jettySize=auto;html=1;entryX=-0.116;entryY=0.68;entryDx=0;entryDy=0;entryPerimeter=0;" edge="1" parent="1" source="UO2rm4Z5bCYeWjgrv236-3" target="gLElLgPTifh7WZ2sO9y9-12">
          <mxGeometry relative="1" as="geometry">
            <mxPoint x="1080" y="500" as="targetPoint" />
            <Array as="points">
              <mxPoint x="650" y="65" />
              <mxPoint x="650" y="280" />
              <mxPoint x="850" y="280" />
              <mxPoint x="850" y="507" />
              <mxPoint x="1110" y="507" />
              <mxPoint x="1110" y="554" />
            </Array>
          </mxGeometry>
        </mxCell>
        <mxCell id="gLElLgPTifh7WZ2sO9y9-15" style="edgeStyle=orthogonalEdgeStyle;rounded=0;orthogonalLoop=1;jettySize=auto;html=1;entryX=0.279;entryY=-0.02;entryDx=0;entryDy=0;entryPerimeter=0;" edge="1" parent="1" source="UO2rm4Z5bCYeWjgrv236-37" target="gLElLgPTifh7WZ2sO9y9-12">
          <mxGeometry relative="1" as="geometry">
            <mxPoint x="1150" y="463" as="targetPoint" />
            <Array as="points">
              <mxPoint x="870" y="80" />
              <mxPoint x="870" y="463" />
              <mxPoint x="1150" y="463" />
              <mxPoint x="1150" y="519" />
            </Array>
          </mxGeometry>
        </mxCell>
        <mxCell id="gLElLgPTifh7WZ2sO9y9-16" style="edgeStyle=orthogonalEdgeStyle;rounded=0;orthogonalLoop=1;jettySize=auto;html=1;entryX=-0.093;entryY=0.72;entryDx=0;entryDy=0;entryPerimeter=0;exitX=1.008;exitY=0.154;exitDx=0;exitDy=0;exitPerimeter=0;" edge="1" parent="1" source="UO2rm4Z5bCYeWjgrv236-33" target="gLElLgPTifh7WZ2sO9y9-12">
          <mxGeometry relative="1" as="geometry">
            <mxPoint x="400" y="320" as="sourcePoint" />
            <Array as="points">
              <mxPoint x="450" y="247" />
              <mxPoint x="450" y="260" />
              <mxPoint x="860" y="260" />
              <mxPoint x="860" y="490" />
              <mxPoint x="960" y="490" />
              <mxPoint x="960" y="486" />
            </Array>
          </mxGeometry>
        </mxCell>
        <mxCell id="gLElLgPTifh7WZ2sO9y9-20" style="edgeStyle=orthogonalEdgeStyle;rounded=0;orthogonalLoop=1;jettySize=auto;html=1;entryX=0.14;entryY=0.7;entryDx=0;entryDy=0;entryPerimeter=0;" edge="1" parent="1" target="gLElLgPTifh7WZ2sO9y9-12">
          <mxGeometry relative="1" as="geometry">
            <mxPoint x="1010" y="550" as="targetPoint" />
            <mxPoint x="652" y="520" as="sourcePoint" />
            <Array as="points">
              <mxPoint x="652" y="520" />
              <mxPoint x="1146" y="520" />
            </Array>
          </mxGeometry>
        </mxCell>
        <mxCell id="gLElLgPTifh7WZ2sO9y9-24" value="" style="group" vertex="1" connectable="0" parent="1">
          <mxGeometry x="1140" y="520" width="43" height="88" as="geometry" />
        </mxCell>
        <mxCell id="gLElLgPTifh7WZ2sO9y9-12" value="" style="aspect=fixed;pointerEvents=1;shadow=0;dashed=0;html=1;strokeColor=none;labelPosition=center;verticalLabelPosition=bottom;verticalAlign=top;align=center;fillColor=#00188D;shape=mxgraph.mscae.enterprise.application_server2" vertex="1" parent="gLElLgPTifh7WZ2sO9y9-24">
          <mxGeometry width="43" height="50" as="geometry" />
        </mxCell>
        <mxCell id="gLElLgPTifh7WZ2sO9y9-17" style="edgeStyle=orthogonalEdgeStyle;rounded=0;orthogonalLoop=1;jettySize=auto;html=1;entryX=0.256;entryY=0.56;entryDx=0;entryDy=0;entryPerimeter=0;" edge="1" parent="gLElLgPTifh7WZ2sO9y9-24" source="gLElLgPTifh7WZ2sO9y9-19" target="gLElLgPTifh7WZ2sO9y9-12">
          <mxGeometry relative="1" as="geometry">
            <mxPoint x="-50" y="30" as="targetPoint" />
            <Array as="points">
              <mxPoint x="11" y="60" />
            </Array>
          </mxGeometry>
        </mxCell>
        <mxCell id="gLElLgPTifh7WZ2sO9y9-19" value="" style="shape=image;html=1;verticalAlign=top;verticalLabelPosition=bottom;labelBackgroundColor=#ffffff;imageAspect=0;aspect=fixed;image=https://cdn4.iconfinder.com/data/icons/logos-brands-5/24/logstash-128.png" vertex="1" parent="gLElLgPTifh7WZ2sO9y9-24">
          <mxGeometry y="55" width="33" height="33" as="geometry" />
        </mxCell>
      </root>
    </mxGraphModel>
  </diagram>
</mxfile>
